<svg width="149" height="189" viewBox="0 0 149 189" fill="none" xmlns="http://www.w3.org/2000/svg">
<path d="M112.787 1.88183C110.933 1.55455 108.969 1.39092 106.897 1.39092C104.933 1.28182 102.915 1.22728 100.842 1.22728C98.8784 1.22728 96.9148 1.22728 94.9511 1.22728C92.9875 1.11819 91.0784 0.84546 89.2239 0.409095C89.0057 0.409095 88.8966 0.518184 88.8966 0.736364C87.6966 5.31819 86.6602 10.2273 85.7875 15.4636C84.9148 20.7 83.9875 26.4273 83.0057 32.6455C82.0239 38.8636 80.8784 45.6818 79.5693 53.1C78.2602 60.4091 76.5693 68.4818 74.4966 77.3182C72.3148 68.4818 70.6784 59.9182 69.5875 51.6273C68.6057 43.3364 67.8966 35.7545 67.4602 28.8818C67.0239 22.0091 66.7512 16.1182 66.6421 11.2091C66.533 6.30001 66.2602 2.75455 65.8239 0.572729C64.9512 0.354551 63.3693 0.190913 61.0784 0.0818169C58.7875 -0.0272723 56.3875 -0.0272723 53.8784 0.0818169C51.3694 0.0818169 49.0239 0.245455 46.8421 0.572729C44.6603 0.900004 43.2421 1.44546 42.5875 2.2091V2.37272C44.1148 21.2455 46.4603 40.0091 49.6239 58.6636C52.7875 77.2091 56.8239 95.3182 61.733 112.991C63.4784 113.536 65.5512 113.864 67.9511 113.973C70.4602 114.191 72.9148 114.3 75.3148 114.3C77.6057 114.3 79.6784 114.191 81.533 113.973C83.3875 113.755 84.7511 113.645 85.6239 113.645C88.242 104.155 90.7511 94.8273 93.1511 85.6636C95.5511 76.3909 97.8966 67.1727 100.187 58.0091C102.478 48.8455 104.66 39.6273 106.733 30.3545C108.915 21.0818 110.933 11.5909 112.787 1.88183ZM5.66567 144.181L18.9147 181.749H19.4376L32.6865 144.181H38.3523L21.9655 188.809H16.3868L0 144.181H5.66567ZM50.7078 144.181V188.809H45.3036V144.181H50.7078ZM61.5434 188.809V144.181H77.1458C80.2546 144.181 82.8187 144.718 84.8381 145.794C86.8573 146.854 88.3609 148.285 89.3488 150.086C90.3366 151.873 90.8306 153.856 90.8306 156.035C90.8306 157.953 90.4891 159.536 89.8063 160.786C89.1381 162.035 88.2519 163.023 87.1479 163.749C86.0583 164.476 84.8744 165.013 83.596 165.362V165.798C84.9615 165.885 86.3343 166.364 87.7145 167.236C89.0945 168.108 90.2495 169.357 91.1791 170.985C92.109 172.611 92.5738 174.602 92.5738 176.954C92.5738 179.192 92.0653 181.203 91.0484 182.991C90.0315 184.778 88.4263 186.194 86.2326 187.241C84.039 188.286 81.1844 188.809 77.6688 188.809H61.5434ZM66.9475 184.016H77.6688C81.1989 184.016 83.7049 183.332 85.1867 181.967C86.6829 180.586 87.4312 178.916 87.4312 176.954C87.4312 175.444 87.0461 174.049 86.2762 172.771C85.5063 171.477 84.4094 170.446 82.9857 169.677C81.5621 168.892 79.8768 168.5 77.9302 168.5H66.9475V184.016ZM66.9475 163.793H76.9714C78.5984 163.793 80.0657 163.473 81.3732 162.834C82.6951 162.195 83.7412 161.294 84.5111 160.132C85.2956 158.97 85.6878 157.604 85.6878 156.035C85.6878 154.074 85.0051 152.411 83.6394 151.045C82.2739 149.665 80.1093 148.975 77.1458 148.975H66.9475V163.793ZM105.289 144.181V148.103C105.289 149.295 105.071 150.566 104.635 151.917C104.214 153.253 103.589 154.554 102.761 155.817C101.948 157.067 100.96 158.156 99.7975 159.086L97.0083 156.82C97.9235 155.512 98.7153 154.154 99.3835 152.745C100.066 151.321 100.408 149.803 100.408 148.191V144.181H105.289ZM148.168 144.181V188.809H142.938L118.62 153.769H118.184V188.809H112.78V144.181H118.009L142.415 179.308H142.851V144.181H148.168Z" fill="#00FFF0"/>
</svg>
